<svg width="174" height="25" viewBox="0 0 174 25" fill="none" xmlns="http://www.w3.org/2000/svg">
<path d="M7.79445 24C5.15445 24 3.21945 23.34 1.98945 22.02C0.789453 20.7 0.189453 18.99 0.189453 16.89V0.824998H6.71445V16.125C6.71445 17.925 7.61445 18.825 9.41445 18.825H18.7745C20.5745 18.825 21.4745 17.925 21.4745 16.125V0.824998H27.9995V16.89C27.9995 18.99 27.3845 20.7 26.1545 22.02C24.9545 23.34 23.0345 24 20.3945 24H7.79445ZM32.7143 24V0.824998H62.7293C65.3693 0.824998 67.3043 1.485 68.5343 2.805C69.7643 4.095 70.3793 5.805 70.3793 7.935V24H63.8543V8.745C63.8543 6.915 62.9243 6 61.0643 6H54.8093V24H48.2843V6H39.2393V24H32.7143ZM81.2865 24C78.8565 24 76.9965 23.385 75.7065 22.155C74.4165 20.925 73.7715 19.17 73.7715 16.89C73.7715 14.64 74.4165 12.9 75.7065 11.67C76.9965 10.44 78.8565 9.825 81.2865 9.825H98.5665V8.745C98.5665 6.915 97.6665 6 95.8665 6H76.7865V0.824998H97.5765C100.306 0.824998 102.241 1.455 103.381 2.715C104.521 3.945 105.091 5.685 105.091 7.935V24H81.2865ZM82.4565 18.825H98.5665V15H82.4565C81.8865 15 81.4365 15.18 81.1065 15.54C80.8065 15.87 80.6565 16.32 80.6565 16.89C80.6565 17.46 80.8065 17.925 81.1065 18.285C81.4365 18.645 81.8865 18.825 82.4565 18.825ZM110.058 24V0.824998H130.263C132.903 0.824998 134.823 1.485 136.023 2.805C137.253 4.095 137.868 5.805 137.868 7.935V24H131.343V8.7C131.343 6.9 130.443 6 128.643 6H116.583V24H110.058ZM154.458 24.225C150.438 24.225 147.303 23.235 145.053 21.255C142.803 19.245 141.678 16.305 141.678 12.435C141.678 8.535 142.803 5.595 145.053 3.615C147.303 1.605 150.438 0.599998 154.458 0.599998H165.708C168.348 0.599998 170.358 1.23 171.738 2.49C173.148 3.72 173.853 5.49 173.853 7.8C173.853 12.51 171.138 14.865 165.708 14.865H148.698C149.328 17.655 151.248 19.05 154.458 19.05H172.683V24.225H154.458ZM154.458 5.775C151.368 5.775 149.463 7.08 148.743 9.69H165.393C165.993 9.69 166.458 9.51 166.788 9.15C167.148 8.79 167.328 8.295 167.328 7.665C167.328 6.405 166.683 5.775 165.393 5.775H154.458Z" fill="white"/>
</svg>
